<?xml version="1.0" standalone="no"?>
<!DOCTYPE svg PUBLIC "-//W3C//DTD SVG 20010904//EN"
 "http://www.w3.org/TR/2001/REC-SVG-20010904/DTD/svg10.dtd">
<svg version="1.0" xmlns="http://www.w3.org/2000/svg"
 width="2038.000000pt" height="2038.000000pt" viewBox="0 0 2038.000000 2038.000000"
 preserveAspectRatio="xMidYMid meet">
<metadata>
Created by potrace 1.14, written by Peter Selinger 2001-2017
</metadata>
<g transform="translate(0.000000,2038.000000) scale(0.100000,-0.100000)"
fill="#000000" stroke="none">
<path d="M10048 20225 c-2 -1 -35 -5 -73 -9 -68 -6 -104 -11 -155 -21 -14 -3
-37 -8 -51 -10 -57 -10 -207 -58 -269 -85 -36 -16 -216 -105 -400 -198 -184
-93 -713 -359 -1175 -592 -1216 -612 -1981 -997 -2730 -1375 -363 -183 -986
-497 -1385 -698 -399 -200 -1010 -508 -1358 -683 -348 -176 -876 -441 -1173
-591 -297 -150 -568 -289 -602 -310 -269 -163 -514 -495 -622 -843 -8 -25 -16
-56 -19 -70 -2 -14 -10 -47 -17 -75 -10 -40 -13 -906 -14 -4447 -1 -2474 2
-4423 7 -4455 5 -32 11 -73 13 -91 6 -51 83 -269 122 -346 128 -253 327 -485
525 -609 28 -17 400 -206 1703 -862 413 -208 1029 -518 1370 -690 1254 -632
2257 -1136 2910 -1464 369 -185 672 -338 675 -341 3 -3 345 -176 760 -384 415
-209 905 -455 1088 -547 182 -93 332 -165 332 -162 0 3 6 1 13 -4 17 -14 127
-49 227 -72 157 -36 234 -44 425 -45 146 -1 261 6 325 19 14 2 36 7 50 10 14
2 39 7 56 10 51 8 201 54 262 79 31 13 239 116 462 229 223 112 772 389 1220
615 448 225 1085 546 1415 712 961 484 1891 953 2518 1268 320 162 948 478
1395 703 447 225 820 414 830 419 9 6 28 14 42 20 59 23 938 474 979 502 328
221 589 639 639 1023 9 66 9 8795 0 8860 -45 339 -259 716 -538 946 -114 94 8
30 -1875 979 -573 289 -2033 1024 -2110 1063 -11 6 -27 14 -35 19 -8 4 -22 11
-30 14 -8 3 -23 10 -32 15 -20 10 -813 410 -1848 931 -377 190 -1025 517
-1440 726 -1480 745 -1594 802 -1684 831 -50 17 -102 32 -116 35 -14 3 -50 10
-80 16 -55 11 -79 15 -155 26 -42 5 -372 14 -377 9z"/>
</g>
</svg>
