<svg id="Layer_1" data-name="Layer 1" xmlns="http://www.w3.org/2000/svg" viewBox="0 0 500 500"><defs><style>.cls-1{fill:#3b9dfc;}.cls-2{fill:none;stroke:#3b9dfc;stroke-miterlimit:10;}.cls-3{fill:#2766b1;}</style></defs><path class="cls-1" d="M494.56,353.11c0,11-8,24-17.86,29L268.42,487c-9.82,4.95-25.9,4.95-35.72,0L24.42,382.1c-9.82-5-17.86-18-17.86-29V147.3c0-11,8-24.05,17.86-29L232.7,13.4c9.82-5,25.9-5,35.72,0L476.7,118.3c9.82,5,17.86,18,17.86,29Z"/><path class="cls-2" d="M494.56,353.11c0,11-8,24-17.86,29L268.42,487c-9.82,4.95-25.9,4.95-35.72,0L24.42,382.1c-9.82-5-17.86-18-17.86-29V147.3c0-11,8-24.05,17.86-29L232.7,13.4c9.82-5,25.9-5,35.72,0L476.7,118.3c9.82,5,17.86,18,17.86,29Z"/><path class="cls-3" d="M407.79,258.55l-64.85,78.07c-4,4.83-10.51,4.83-14.51,0a14.17,14.17,0,0,1,0-17.44l57.63-69.37-57.63-69.34a14.17,14.17,0,0,1,0-17.44c4-4.82,10.5-4.82,14.51,0l64.85,78.08A14.09,14.09,0,0,1,407.79,258.55ZM195.15,411c-3,6.21-9.48,8.35-14.6,4.75s-6.86-11.51-3.91-17.72L304.83,89.42c3-6.21,9.49-8.34,14.61-4.74s6.86,11.51,3.9,17.72Zm-23.6-74.36a9.07,9.07,0,0,1-14.5,0L92.16,258.55a14.26,14.26,0,0,1,0-17.44L157.05,163a9.08,9.08,0,0,1,14.5,0,14.15,14.15,0,0,1,0,17.44l-57.63,69.34,57.63,69.37A14.15,14.15,0,0,1,171.55,336.62Z"/></svg>